<svg id="Layer_1" data-name="Layer 1" xmlns="http://www.w3.org/2000/svg" viewBox="0 0 500 500"><defs><style>.cls-1{fill:#e62180;}</style></defs><title>FuchsiaCoinIcon</title><path class="cls-1" d="M223,233.46c-.55-.82-1-1.69-1.5-2.56-14.33-24.82-29.66-44.17-44-58.13-13.87,7.39-21.36,15.7-21.36,22.91C156.13,208.64,180.59,225.34,223,233.46Z"/><path class="cls-1" d="M245.29,357.44C256,351.23,258.53,324,246.39,286c-.27.55-.59,1-.87,1.51-13.73,23.77-22.63,45.85-27.74,64.74C229.74,359.08,239.5,360.81,245.29,357.44Z"/><path class="cls-1" d="M236.63,260.65c-.51-1.14-1-2.28-1.56-3.42-54-7.25-100.61-28.29-100.61-61.55,0-15.2,9.76-27.84,25.42-37.83-11.64-8.35-21.91-12.5-29.3-12.5a13.57,13.57,0,0,0-6.89,1.64c-6,3.47-9.22,13-9.22,26.51a110.77,110.77,0,0,0,1.15,15.11c3.51,25.41,14.87,55.62,31.84,85s35.32,51.11,51.79,65.3a308.37,308.37,0,0,1,27.47-62.24C229.87,271.29,233.16,265.9,236.63,260.65Z"/><path class="cls-1" d="M263.55,259.7c-.87,1.14-1.74,2.32-2.51,3.46,1.82,4.75,3.56,9.5,5.11,14.19,6.3,19.17,10,37.79,10,53.89,0,20.54-6,36.87-20.08,45-12.41,7.11-27.19,5.7-42.66-1.78a109.68,109.68,0,0,0-.87,12.82c0,14,3.43,23.45,9.22,26.78,15.42,8.95,60.09-18.66,97.74-83.87,15.65-27.05,26.46-54.71,30.85-78.75C328,257.1,302.56,260,277.69,260,273,260,268.29,259.88,263.55,259.7Z"/><path class="cls-1" d="M343.31,203.62c-10.77-6.21-35.64,5.25-62.47,34.72,28.47-.27,52.66-4.11,71.64-9.76C352.25,215.94,349.1,207,343.31,203.62Z"/><path class="cls-1" d="M250,0C111.93,0,0,111.93,0,250S111.93,500,250,500,500,388.07,500,250,388.07,0,250,0ZM373.29,244.27c-.14,1.28-.32,2.6-.5,3.93-3.93,28.06-16.2,61.05-34.55,92.81-34.72,60.14-91.12,112.75-127.35,91.85-19.62-11.36-23.5-38.69-17.43-70.86-23.5-18-47-46.77-64.75-77.57-18.34-31.76-30.62-64.75-34.54-92.81-4.38-31.35,2.23-53.85,18.71-63.34,19.25-11.13,44.17-1.5,68.53,19,27-10.54,62.11-16,96.24-16,69.4,0,143.14,22.54,143.14,64.34C420.79,217.08,401.49,233.41,373.29,244.27Z"/><path class="cls-1" d="M277.69,153c-31.85,0-58.54,4.42-78.71,10.95A306.92,306.92,0,0,1,240.28,220c3.19,5.57,6.25,11.23,9.12,17,1.33.14,2.69.28,4.06.37,32.67-41.07,72.69-68.76,100.66-52.61,11.14,6.43,17.75,18.8,19.53,35.82,16.52-7.85,25.51-17.11,25.51-25C399.16,177.84,352.94,153,277.69,153Z"/></svg>